<svg data-v-423bf9ae="" xmlns="http://www.w3.org/2000/svg" viewBox="0 0 440.94217302960067 60" class="font"><!----><!----><defs data-v-423bf9ae=""><linearGradient data-v-423bf9ae="" gradientTransform="rotate(25)" id="984c6e75-64a7-451b-b8fe-8669e6b6e67c" x1="0%" y1="0%" x2="100%" y2="0%"><stop data-v-423bf9ae="" offset="0%" style="stop-color: rgb(18, 38, 99); stop-opacity: 1;"></stop><stop data-v-423bf9ae="" offset="100%" style="stop-color: rgb(93, 215, 173); stop-opacity: 1;"></stop></linearGradient></defs><g data-v-423bf9ae="" id="efd2f42e-518f-4ddd-bc66-a10209f7e2d1" fill="url(#984c6e75-64a7-451b-b8fe-8669e6b6e67c)" transform="matrix(4.282655239105225,0,0,4.282655239105225,-2.655231475830078,-27.537471771240234)"><path d="M8.31 14.32L8.65 16.13L8.65 16.13Q8.33 16.39 7.91 16.59L7.91 16.59L7.91 16.59Q7.49 16.80 7.03 16.95L7.03 16.95L7.03 16.95Q6.56 17.10 6.08 17.18L6.08 17.18L6.08 17.18Q5.60 17.26 5.16 17.26L5.16 17.26L5.16 17.26Q4.10 17.26 3.26 16.91L3.26 16.91L3.26 16.91Q2.41 16.56 1.83 15.90L1.83 15.90L1.83 15.90Q1.24 15.25 0.93 14.32L0.93 14.32L0.93 14.32Q0.62 13.39 0.62 12.24L0.62 12.24L0.62 12.24Q0.62 11.35 0.79 10.62L0.79 10.62L0.79 10.62Q0.96 9.88 1.28 9.30L1.28 9.30L1.28 9.30Q1.60 8.71 2.04 8.27L2.04 8.27L2.04 8.27Q2.47 7.83 3.00 7.53L3.00 7.53L3.00 7.53Q3.53 7.23 4.13 7.09L4.13 7.09L4.13 7.09Q4.73 6.94 5.37 6.94L5.37 6.94L5.37 6.94Q5.84 6.94 6.25 6.99L6.25 6.99L6.25 6.99Q6.67 7.04 7.06 7.15L7.06 7.15L7.06 7.15Q7.44 7.27 7.81 7.45L7.81 7.45L7.81 7.45Q8.18 7.63 8.54 7.90L8.54 7.90L8.07 9.54L8.07 9.54Q7.41 9.02 6.78 8.80L6.78 8.80L6.78 8.80Q6.15 8.58 5.47 8.58L5.47 8.58L5.47 8.58Q4.85 8.58 4.31 8.80L4.31 8.80L4.31 8.80Q3.78 9.02 3.39 9.45L3.39 9.45L3.39 9.45Q3.00 9.89 2.78 10.54L2.78 10.54L2.78 10.54Q2.56 11.20 2.56 12.07L2.56 12.07L2.56 12.07Q2.56 12.89 2.76 13.55L2.76 13.55L2.76 13.55Q2.95 14.20 3.32 14.65L3.32 14.65L3.32 14.65Q3.68 15.11 4.21 15.35L4.21 15.35L4.21 15.35Q4.74 15.59 5.40 15.59L5.40 15.59L5.40 15.59Q5.78 15.59 6.18 15.50L6.18 15.50L6.18 15.50Q6.58 15.41 6.96 15.24L6.96 15.24L6.96 15.24Q7.33 15.07 7.68 14.84L7.68 14.84L7.68 14.84Q8.03 14.61 8.31 14.32L8.31 14.32ZM17.09 7.11L19.17 7.11L19.17 7.11Q19.08 7.32 18.98 7.55L18.98 7.55L18.98 7.55Q18.89 7.78 18.77 8.07L18.77 8.07L18.77 8.07Q18.66 8.36 18.53 8.73L18.53 8.73L18.53 8.73Q18.39 9.11 18.22 9.60L18.22 9.60L15.55 17.09L13.26 17.09L10.60 9.60L10.60 9.60Q10.42 9.11 10.28 8.74L10.28 8.74L10.28 8.74Q10.14 8.37 10.02 8.07L10.02 8.07L10.02 8.07Q9.91 7.78 9.82 7.55L9.82 7.55L9.82 7.55Q9.72 7.32 9.64 7.11L9.64 7.11L11.72 7.11L14.40 15.31L17.09 7.11ZM27.79 14.32L28.13 16.13L28.13 16.13Q27.82 16.39 27.40 16.59L27.40 16.59L27.40 16.59Q26.97 16.80 26.51 16.95L26.51 16.95L26.51 16.95Q26.04 17.10 25.56 17.18L25.56 17.18L25.56 17.18Q25.08 17.26 24.64 17.26L24.64 17.26L24.64 17.26Q23.58 17.26 22.74 16.91L22.74 16.91L22.74 16.91Q21.90 16.56 21.31 15.90L21.31 15.90L21.31 15.90Q20.72 15.25 20.41 14.32L20.41 14.32L20.41 14.32Q20.10 13.39 20.10 12.24L20.10 12.24L20.10 12.24Q20.10 11.35 20.27 10.62L20.27 10.62L20.27 10.62Q20.45 9.88 20.76 9.30L20.76 9.30L20.76 9.30Q21.08 8.71 21.52 8.27L21.52 8.27L21.52 8.27Q21.96 7.83 22.49 7.53L22.49 7.53L22.49 7.53Q23.02 7.23 23.61 7.09L23.61 7.09L23.61 7.09Q24.21 6.94 24.85 6.94L24.85 6.94L24.85 6.94Q25.32 6.94 25.74 6.99L25.74 6.99L25.74 6.99Q26.15 7.04 26.54 7.15L26.54 7.15L26.54 7.15Q26.93 7.27 27.29 7.45L27.29 7.45L27.29 7.45Q27.66 7.63 28.03 7.90L28.03 7.90L27.55 9.54L27.55 9.54Q26.89 9.02 26.26 8.80L26.26 8.80L26.26 8.80Q25.63 8.58 24.95 8.58L24.95 8.58L24.95 8.58Q24.33 8.58 23.80 8.80L23.80 8.80L23.80 8.80Q23.26 9.02 22.87 9.45L22.87 9.45L22.87 9.45Q22.48 9.89 22.26 10.54L22.26 10.54L22.26 10.54Q22.05 11.20 22.05 12.07L22.05 12.07L22.05 12.07Q22.05 12.89 22.24 13.55L22.24 13.55L22.24 13.55Q22.44 14.20 22.80 14.65L22.80 14.65L22.80 14.65Q23.17 15.11 23.69 15.35L23.69 15.35L23.69 15.35Q24.22 15.59 24.88 15.59L24.88 15.59L24.88 15.59Q25.27 15.59 25.66 15.50L25.66 15.50L25.66 15.50Q26.06 15.41 26.44 15.24L26.44 15.24L26.44 15.24Q26.82 15.07 27.16 14.84L27.16 14.84L27.16 14.84Q27.51 14.61 27.79 14.32L27.79 14.32ZM35.79 11.11L39.53 11.11L39.53 12.65L35.79 12.65L35.79 15.52L37.55 15.52L37.55 15.52Q38.53 15.52 39.19 15.50L39.19 15.50L39.19 15.50Q39.84 15.49 40.24 15.42L40.24 15.42L40.24 17.09L33.74 17.09L33.74 17.09Q33.81 16.68 33.82 15.90L33.82 15.90L33.82 15.90Q33.84 15.13 33.84 14.12L33.84 14.12L33.84 10.08L33.84 10.08Q33.84 9.07 33.82 8.30L33.82 8.30L33.82 8.30Q33.81 7.52 33.74 7.11L33.74 7.11L40.04 7.11L40.04 8.68L35.79 8.68L35.79 11.11ZM48.65 17.09L46.74 17.09L46.74 13.33L46.74 13.33Q46.74 12.86 46.68 12.54L46.68 12.54L46.68 12.54Q46.61 12.22 46.48 12.02L46.48 12.02L46.48 12.02Q46.35 11.83 46.15 11.74L46.15 11.74L46.15 11.74Q45.95 11.66 45.68 11.66L45.68 11.66L45.68 11.66Q45.38 11.66 45.10 11.79L45.10 11.79L45.10 11.79Q44.82 11.92 44.58 12.13L44.58 12.13L44.58 12.13Q44.34 12.34 44.17 12.60L44.17 12.60L44.17 12.60Q43.99 12.86 43.90 13.13L43.90 13.13L43.90 17.09L41.99 17.09L41.99 12.89L41.99 12.89Q41.99 11.87 41.87 11.17L41.87 11.17L41.87 11.17Q41.76 10.47 41.64 10.12L41.64 10.12L43.52 10.12L43.52 10.12Q43.57 10.22 43.61 10.39L43.61 10.39L43.61 10.39Q43.65 10.55 43.68 10.74L43.68 10.74L43.68 10.74Q43.72 10.92 43.74 11.09L43.74 11.09L43.80 11.38L43.80 11.38Q44.13 11.01 44.44 10.75L44.44 10.75L44.44 10.75Q44.75 10.48 45.08 10.31L45.08 10.31L45.08 10.31Q45.40 10.14 45.73 10.06L45.73 10.06L45.73 10.06Q46.07 9.98 46.43 9.98L46.43 9.98L46.43 9.98Q46.95 9.98 47.36 10.16L47.36 10.16L47.36 10.16Q47.78 10.34 48.06 10.69L48.06 10.69L48.06 10.69Q48.35 11.05 48.50 11.58L48.50 11.58L48.50 11.58Q48.65 12.11 48.65 12.82L48.65 12.82L48.65 17.09ZM55.01 11.59L52.92 11.59L52.92 13.93L52.92 13.93Q52.92 14.51 52.97 14.86L52.97 14.86L52.97 14.86Q53.02 15.20 53.13 15.39L53.13 15.39L53.13 15.39Q53.23 15.57 53.40 15.63L53.40 15.63L53.40 15.63Q53.56 15.68 53.79 15.68L53.79 15.68L53.79 15.68Q54.05 15.68 54.38 15.55L54.38 15.55L54.38 15.55Q54.70 15.42 55.11 15.17L55.11 15.17L55.11 16.70L55.11 16.70Q54.62 17.01 54.17 17.13L54.17 17.13L54.17 17.13Q53.72 17.26 53.35 17.26L53.35 17.26L53.35 17.26Q52.87 17.26 52.44 17.17L52.44 17.17L52.44 17.17Q52.01 17.08 51.70 16.84L51.70 16.84L51.70 16.84Q51.38 16.61 51.19 16.23L51.19 16.23L51.19 16.23Q51.01 15.84 51.01 15.24L51.01 15.24L51.01 11.59L49.71 11.59L49.71 10.22L51.01 10.22L51.01 8.07L52.92 8.07L52.92 10.22L55.01 10.22L55.01 11.59ZM62.46 14.01L58.04 14.01L58.04 14.01Q58.11 14.90 58.55 15.30L58.55 15.30L58.55 15.30Q58.98 15.69 59.75 15.69L59.75 15.69L59.75 15.69Q60.43 15.69 61.07 15.53L61.07 15.53L61.07 15.53Q61.71 15.38 62.35 15.00L62.35 15.00L62.49 16.58L62.49 16.58Q62.13 16.76 61.77 16.89L61.77 16.89L61.77 16.89Q61.42 17.02 61.07 17.10L61.07 17.10L61.07 17.10Q60.72 17.19 60.35 17.22L60.35 17.22L60.35 17.22Q59.98 17.26 59.58 17.26L59.58 17.26L59.58 17.26Q58.91 17.26 58.29 17.03L58.29 17.03L58.29 17.03Q57.67 16.80 57.20 16.35L57.20 16.35L57.20 16.35Q56.72 15.91 56.45 15.24L56.45 15.24L56.45 15.24Q56.17 14.58 56.17 13.71L56.17 13.71L56.17 13.71Q56.17 12.86 56.41 12.17L56.41 12.17L56.41 12.17Q56.64 11.48 57.09 11.00L57.09 11.00L57.09 11.00Q57.53 10.51 58.16 10.24L58.16 10.24L58.16 10.24Q58.79 9.98 59.58 9.98L59.58 9.98L59.58 9.98Q60.16 9.98 60.59 10.12L60.59 10.12L60.59 10.12Q61.02 10.26 61.34 10.50L61.34 10.50L61.34 10.50Q61.66 10.75 61.88 11.08L61.88 11.08L61.88 11.08Q62.09 11.41 62.22 11.80L62.22 11.80L62.22 11.80Q62.34 12.18 62.40 12.61L62.40 12.61L62.40 12.61Q62.45 13.03 62.45 13.45L62.45 13.45L62.45 13.58L62.45 13.58Q62.45 13.65 62.46 13.73L62.46 13.73L62.46 13.73Q62.46 13.82 62.46 13.89L62.46 13.89L62.46 14.01ZM59.49 11.42L59.49 11.42L59.49 11.42Q58.89 11.42 58.55 11.73L58.55 11.73L58.55 11.73Q58.20 12.05 58.08 12.78L58.08 12.78L60.72 12.78L60.72 12.78Q60.72 12.06 60.41 11.74L60.41 11.74L60.41 11.74Q60.09 11.42 59.49 11.42ZM66.05 17.09L64.13 17.09L64.13 12.89L64.13 12.89Q64.13 11.87 64.02 11.17L64.02 11.17L64.02 11.17Q63.91 10.47 63.79 10.12L63.79 10.12L65.67 10.12L65.67 10.12Q65.71 10.23 65.75 10.40L65.75 10.40L65.75 10.40Q65.80 10.58 65.83 10.77L65.83 10.77L65.83 10.77Q65.86 10.96 65.89 11.14L65.89 11.14L65.95 11.45L65.95 11.45Q66.19 11.09 66.47 10.82L66.47 10.82L66.47 10.82Q66.75 10.55 67.04 10.36L67.04 10.36L67.04 10.36Q67.32 10.17 67.59 10.08L67.59 10.08L67.59 10.08Q67.87 9.98 68.10 9.98L68.10 9.98L68.10 9.98Q68.58 9.98 68.92 10.19L68.92 10.19L68.92 10.19Q69.25 10.39 69.47 10.74L69.47 10.74L69.47 10.74Q69.69 11.09 69.78 11.56L69.78 11.56L69.78 11.56Q69.88 12.02 69.88 12.54L69.88 12.54L68.35 12.78L68.35 12.78Q68.32 12.32 68.13 12.03L68.13 12.03L68.13 12.03Q67.94 11.75 67.50 11.75L67.50 11.75L67.50 11.75Q67.33 11.75 67.11 11.90L67.11 11.90L67.11 11.90Q66.90 12.05 66.69 12.29L66.69 12.29L66.69 12.29Q66.49 12.53 66.31 12.84L66.31 12.84L66.31 12.84Q66.14 13.15 66.05 13.47L66.05 13.47L66.05 17.09ZM74.27 15.68L74.27 15.68L74.27 15.68Q74.59 15.68 74.87 15.54L74.87 15.54L74.87 15.54Q75.16 15.40 75.38 15.13L75.38 15.13L75.38 15.13Q75.60 14.87 75.73 14.49L75.73 14.49L75.73 14.49Q75.86 14.11 75.86 13.64L75.86 13.64L75.86 13.64Q75.86 13.17 75.77 12.80L75.77 12.80L75.77 12.80Q75.68 12.42 75.51 12.16L75.51 12.16L75.51 12.16Q75.34 11.89 75.09 11.75L75.09 11.75L75.09 11.75Q74.85 11.61 74.54 11.61L74.54 11.61L74.54 11.61Q74.31 11.61 74.07 11.70L74.07 11.70L74.07 11.70Q73.83 11.80 73.61 11.99L73.61 11.99L73.61 11.99Q73.39 12.17 73.19 12.45L73.19 12.45L73.19 12.45Q72.99 12.73 72.85 13.09L72.85 13.09L72.85 15.04L72.85 15.04Q73.11 15.23 73.30 15.36L73.30 15.36L73.30 15.36Q73.49 15.48 73.64 15.56L73.64 15.56L73.64 15.56Q73.80 15.63 73.95 15.65L73.95 15.65L73.95 15.65Q74.09 15.68 74.27 15.68ZM73.02 20.44L70.94 20.44L70.94 13.77L70.94 13.77Q70.94 13.14 70.93 12.60L70.93 12.60L70.93 12.60Q70.92 12.05 70.88 11.60L70.88 11.60L70.88 11.60Q70.85 11.14 70.78 10.77L70.78 10.77L70.78 10.77Q70.71 10.40 70.59 10.12L70.59 10.12L72.47 10.12L72.47 10.12Q72.55 10.27 72.63 10.56L72.63 10.56L72.63 10.56Q72.70 10.86 72.75 11.28L72.75 11.28L72.75 11.28Q72.98 10.99 73.26 10.75L73.26 10.75L73.26 10.75Q73.54 10.51 73.85 10.34L73.85 10.34L73.85 10.34Q74.16 10.17 74.51 10.08L74.51 10.08L74.51 10.08Q74.86 9.98 75.23 9.98L75.23 9.98L75.23 9.98Q75.80 9.98 76.27 10.24L76.27 10.24L76.27 10.24Q76.74 10.49 77.07 10.95L77.07 10.95L77.07 10.95Q77.40 11.42 77.59 12.05L77.59 12.05L77.59 12.05Q77.77 12.68 77.77 13.43L77.77 13.43L77.77 13.43Q77.77 14.31 77.53 15.02L77.53 15.02L77.53 15.02Q77.29 15.72 76.88 16.22L76.88 16.22L76.88 16.22Q76.47 16.72 75.91 16.99L75.91 16.99L75.91 16.99Q75.35 17.26 74.72 17.26L74.72 17.26L74.72 17.26Q74.46 17.26 74.22 17.22L74.22 17.22L74.22 17.22Q73.98 17.17 73.76 17.09L73.76 17.09L73.76 17.09Q73.53 17.01 73.31 16.90L73.31 16.90L73.31 16.90Q73.09 16.79 72.85 16.65L72.85 16.65L72.85 18.12L72.85 18.12Q72.85 18.53 72.86 18.86L72.86 18.86L72.86 18.86Q72.87 19.19 72.89 19.47L72.89 19.47L72.89 19.47Q72.91 19.75 72.95 19.98L72.95 19.98L72.95 19.98Q72.98 20.22 73.02 20.44L73.02 20.44ZM81.29 17.09L79.38 17.09L79.38 12.89L79.38 12.89Q79.38 11.87 79.27 11.17L79.27 11.17L79.27 11.17Q79.15 10.47 79.04 10.12L79.04 10.12L80.92 10.12L80.92 10.12Q80.96 10.23 81.00 10.40L81.00 10.40L81.00 10.40Q81.04 10.58 81.07 10.77L81.07 10.77L81.07 10.77Q81.11 10.96 81.14 11.14L81.14 11.14L81.19 11.45L81.19 11.45Q81.44 11.09 81.72 10.82L81.72 10.82L81.72 10.82Q82.00 10.55 82.28 10.36L82.28 10.36L82.28 10.36Q82.56 10.17 82.84 10.08L82.84 10.08L82.84 10.08Q83.11 9.98 83.34 9.98L83.34 9.98L83.34 9.98Q83.82 9.98 84.16 10.19L84.16 10.19L84.16 10.19Q84.50 10.39 84.71 10.74L84.71 10.74L84.71 10.74Q84.93 11.09 85.03 11.56L85.03 11.56L85.03 11.56Q85.12 12.02 85.12 12.54L85.12 12.54L83.60 12.78L83.60 12.78Q83.56 12.32 83.37 12.03L83.37 12.03L83.37 12.03Q83.18 11.75 82.74 11.75L82.74 11.75L82.74 11.75Q82.57 11.75 82.36 11.90L82.36 11.90L82.36 11.90Q82.14 12.05 81.94 12.29L81.94 12.29L81.94 12.29Q81.73 12.53 81.56 12.84L81.56 12.84L81.56 12.84Q81.38 13.15 81.29 13.47L81.29 13.47L81.29 17.09ZM86.18 7.62L86.18 7.62L86.18 7.62Q86.18 7.36 86.27 7.14L86.27 7.14L86.27 7.14Q86.36 6.92 86.52 6.76L86.52 6.76L86.52 6.76Q86.68 6.60 86.90 6.51L86.90 6.51L86.90 6.51Q87.12 6.43 87.38 6.43L87.38 6.43L87.38 6.43Q87.64 6.43 87.86 6.51L87.86 6.51L87.86 6.51Q88.07 6.60 88.23 6.76L88.23 6.76L88.23 6.76Q88.40 6.92 88.48 7.14L88.48 7.14L88.48 7.14Q88.57 7.36 88.57 7.62L88.57 7.62L88.57 7.62Q88.57 7.89 88.48 8.11L88.48 8.11L88.48 8.11Q88.40 8.33 88.23 8.49L88.23 8.49L88.23 8.49Q88.07 8.65 87.86 8.73L87.86 8.73L87.86 8.73Q87.64 8.82 87.38 8.82L87.38 8.82L87.38 8.82Q87.12 8.82 86.90 8.73L86.90 8.73L86.90 8.73Q86.68 8.65 86.52 8.49L86.52 8.49L86.52 8.49Q86.36 8.33 86.27 8.11L86.27 8.11L86.27 8.11Q86.18 7.89 86.18 7.62ZM86.32 10.12L88.33 10.12L88.33 13.84L88.33 13.84Q88.33 14.17 88.34 14.62L88.34 14.62L88.34 14.62Q88.35 15.07 88.37 15.52L88.37 15.52L88.37 15.52Q88.39 15.98 88.41 16.40L88.41 16.40L88.41 16.40Q88.44 16.82 88.47 17.09L88.47 17.09L86.42 17.09L86.42 13.47L86.42 13.47Q86.42 12.97 86.42 12.48L86.42 12.48L86.42 12.48Q86.41 12.00 86.40 11.56L86.40 11.56L86.40 11.56Q86.39 11.13 86.37 10.76L86.37 10.76L86.37 10.76Q86.35 10.38 86.32 10.12L86.32 10.12ZM95.75 10.53L95.48 12.16L95.48 12.16Q95.29 12.06 95.05 11.95L95.05 11.95L95.05 11.95Q94.80 11.83 94.51 11.74L94.51 11.74L94.51 11.74Q94.23 11.64 93.90 11.58L93.90 11.58L93.90 11.58Q93.58 11.51 93.22 11.51L93.22 11.51L93.22 11.51Q92.92 11.51 92.72 11.57L92.72 11.57L92.72 11.57Q92.52 11.62 92.39 11.70L92.39 11.70L92.39 11.70Q92.27 11.79 92.22 11.89L92.22 11.89L92.22 11.89Q92.16 12.00 92.16 12.10L92.16 12.10L92.16 12.10Q92.16 12.22 92.21 12.32L92.21 12.32L92.21 12.32Q92.25 12.41 92.39 12.50L92.39 12.50L92.39 12.50Q92.54 12.58 92.81 12.65L92.81 12.65L92.81 12.65Q93.08 12.73 93.53 12.82L93.53 12.82L93.53 12.82Q94.06 12.93 94.53 13.09L94.53 13.09L94.53 13.09Q95.01 13.25 95.36 13.50L95.36 13.50L95.36 13.50Q95.72 13.75 95.92 14.10L95.92 14.10L95.92 14.10Q96.13 14.45 96.13 14.94L96.13 14.94L96.13 14.94Q96.13 15.43 95.89 15.85L95.89 15.85L95.89 15.85Q95.66 16.28 95.26 16.59L95.26 16.59L95.26 16.59Q94.86 16.91 94.32 17.08L94.32 17.08L94.32 17.08Q93.78 17.26 93.15 17.26L93.15 17.26L93.15 17.26Q92.70 17.26 92.27 17.20L92.27 17.20L92.27 17.20Q91.84 17.14 91.46 17.03L91.46 17.03L91.46 17.03Q91.09 16.92 90.78 16.78L90.78 16.78L90.78 16.78Q90.47 16.63 90.25 16.47L90.25 16.47L90.62 14.81L90.62 14.81Q90.88 15.01 91.20 15.18L91.20 15.18L91.20 15.18Q91.52 15.35 91.86 15.48L91.86 15.48L91.86 15.48Q92.20 15.60 92.54 15.66L92.54 15.66L92.54 15.66Q92.89 15.73 93.19 15.73L93.19 15.73L93.19 15.73Q93.43 15.73 93.63 15.68L93.63 15.68L93.63 15.68Q93.83 15.63 93.97 15.54L93.97 15.54L93.97 15.54Q94.12 15.45 94.20 15.34L94.20 15.34L94.20 15.34Q94.28 15.23 94.28 15.11L94.28 15.11L94.28 15.11Q94.28 14.96 94.21 14.83L94.21 14.83L94.21 14.83Q94.14 14.70 93.97 14.58L93.97 14.58L93.97 14.58Q93.79 14.46 93.48 14.36L93.48 14.36L93.48 14.36Q93.17 14.25 92.67 14.14L92.67 14.14L92.67 14.14Q91.94 13.99 91.49 13.78L91.49 13.78L91.49 13.78Q91.03 13.58 90.77 13.32L90.77 13.32L90.77 13.32Q90.51 13.07 90.41 12.78L90.41 12.78L90.41 12.78Q90.32 12.49 90.32 12.17L90.32 12.17L90.32 12.17Q90.32 12.00 90.37 11.77L90.37 11.77L90.37 11.77Q90.43 11.55 90.57 11.30L90.57 11.30L90.57 11.30Q90.70 11.06 90.92 10.82L90.92 10.82L90.92 10.82Q91.14 10.59 91.48 10.40L91.48 10.40L91.48 10.40Q91.81 10.21 92.25 10.10L92.25 10.10L92.25 10.10Q92.70 9.98 93.29 9.98L93.29 9.98L93.29 9.98Q93.71 9.98 94.07 10.03L94.07 10.03L94.07 10.03Q94.43 10.08 94.74 10.15L94.74 10.15L94.74 10.15Q95.05 10.23 95.30 10.33L95.30 10.33L95.30 10.33Q95.55 10.43 95.75 10.53L95.75 10.53ZM103.54 14.01L99.13 14.01L99.13 14.01Q99.20 14.90 99.63 15.30L99.63 15.30L99.63 15.30Q100.06 15.69 100.84 15.69L100.84 15.69L100.84 15.69Q101.51 15.69 102.15 15.53L102.15 15.53L102.15 15.53Q102.79 15.38 103.43 15.00L103.43 15.00L103.58 16.58L103.58 16.58Q103.21 16.76 102.86 16.89L102.86 16.89L102.86 16.89Q102.50 17.02 102.15 17.10L102.15 17.10L102.15 17.10Q101.80 17.19 101.43 17.22L101.43 17.22L101.43 17.22Q101.06 17.26 100.67 17.26L100.67 17.26L100.67 17.26Q99.99 17.26 99.37 17.03L99.37 17.03L99.37 17.03Q98.75 16.80 98.28 16.35L98.28 16.35L98.28 16.35Q97.81 15.91 97.53 15.24L97.53 15.24L97.53 15.24Q97.25 14.58 97.25 13.71L97.25 13.71L97.25 13.71Q97.25 12.86 97.49 12.17L97.49 12.17L97.49 12.17Q97.73 11.48 98.17 11.00L98.17 11.00L98.17 11.00Q98.62 10.51 99.24 10.24L99.24 10.24L99.24 10.24Q99.87 9.98 100.67 9.98L100.67 9.98L100.67 9.98Q101.24 9.98 101.67 10.12L101.67 10.12L101.67 10.12Q102.11 10.26 102.43 10.50L102.43 10.50L102.43 10.50Q102.74 10.75 102.96 11.08L102.96 11.08L102.96 11.08Q103.17 11.41 103.30 11.80L103.30 11.80L103.30 11.80Q103.43 12.18 103.48 12.61L103.48 12.61L103.48 12.61Q103.54 13.03 103.54 13.45L103.54 13.45L103.54 13.58L103.54 13.58Q103.54 13.65 103.54 13.73L103.54 13.73L103.54 13.73Q103.54 13.82 103.54 13.89L103.54 13.89L103.54 14.01ZM100.57 11.42L100.57 11.42L100.57 11.42Q99.98 11.42 99.63 11.73L99.63 11.73L99.63 11.73Q99.29 12.05 99.17 12.78L99.17 12.78L101.80 12.78L101.80 12.78Q101.80 12.06 101.49 11.74L101.49 11.74L101.49 11.74Q101.18 11.42 100.57 11.42Z"></path></g><!----><!----></svg>